<svg xmlns="http://www.w3.org/2000/svg" viewBox="0 0 268.3 176.4"><defs><style>.cls-1{fill:#005595;}.cls-2{fill:#0076bf;}</style></defs><title>blue-knife</title><g id="Layer_2" data-name="Layer 2"><g id="blue"><path class="cls-1" d="M12.66,166h0l-4.2,3C6,170.76,3.89,173,0,176.38H0l0,0c26,.22,48.93-4.27,68.62-16.83,28.67-18.3,56.14-38.53,83.57-58.68,8.22-6,14.24-15,22-21.79,6.44-5.73,13.7-10.6,20.91-15.38,10.71-7.09,23.35-12.13,32.16-21,11.84-12,24.56-20,41.08-22.13L253.62,0c-5.35,1.83-11.51,2.52-15.94,5.66Q125,85.57,12.66,166Z"/><path class="cls-2" d="M268.3,20.57c-16.52,2.17-29.24,10.18-41.08,22.13-8.81,8.89-21.45,13.93-32.16,21-7.21,4.78-14.47,9.65-20.91,15.38-7.71,6.84-13.73,15.76-22,21.8C124.77,121,97.3,141.27,68.63,159.57,48.94,172.13,26.05,176.62,0,176.4,3.9,173,6,170.78,8.44,169Q123,87.22,237.68,5.66c4.43-3.14,10.59-3.83,15.94-5.66Z"/><path class="cls-1" d="M262.19,12c-12.69,3.41-23.12,10.6-32.93,20.5-8.82,8.9-21.46,13.94-32.17,21-7.21,4.78-14.46,9.65-20.91,15.37-7.7,6.84-13.73,15.77-21.94,21.8-27.44,20.15-54.9,40.38-83.57,58.68-17,10.83-36.35,15.65-58,16.63l-4.2,3C6,170.76,3.89,173,0,176.38c26,.23,48.93-4.26,68.62-16.83,28.67-18.29,56.14-38.52,83.57-58.67,8.22-6,14.24-15,21.95-21.8,6.44-5.72,13.69-10.6,20.9-15.37,10.72-7.1,23.36-12.14,32.17-21,11.84-11.95,24.56-20,41.08-22.13Z"/></g></g></svg>