<svg xmlns="http://www.w3.org/2000/svg" viewBox="0 0 345.61 89.62"><defs><style>.cls-1{fill:#00b63b;}.cls-2{fill:#008438;}</style></defs><title>green-knife</title><g id="Layer_2" data-name="Layer 2"><g id="blue"><path class="cls-1" d="M1,21.47C19,16.36,32.51,24,50.09,31.14c13.08,5.29,25,6.71,39.3,9.28,9.59,1.74,21.77-1.21,31,1.84,11,3.66,22.83,19.81,34,22.4C191.78,73.3,229.23,82,267.06,88.2c26,4.25,51.69-1.3,78.55-13.12-5.55-1.81-8.71-3.16-12-3.87C230.26,48.72,5.62,0,5.62,0Z"/><path class="cls-2" d="M2.07,16.38c14.15,1.74,28.42,1.81,43,7.69,13.08,5.29,27.53,9,41.78,11.54,9.59,1.73,20.54-2.28,29.76.77,11,3.66,25.81,17.31,37,19.9,37.37,8.65,69,16.11,106.82,22.28,22.41,3.66,44.6,0,67.51-8.61l5.68,1.23c3.29.72,6.46,2.06,12,3.87-26.86,11.83-52.56,17.37-78.55,13.13C229.23,82,191.78,73.28,154.41,64.63c-11.19-2.59-26-16.24-37-19.9-9.22-3-15.25.81-24.84-.93C78.32,41.22,64.79,39,51.7,33.69,34.13,26.59,18.83,24.18,0,25.92.84,22.07,1.23,20.23,2.07,16.38Z"/></g></g></svg>