<svg xmlns="http://www.w3.org/2000/svg" viewBox="0 0 357.72 142.59"><defs><style>.cls-1{fill:#ed671c;}.cls-2{fill:#ff750d;}</style></defs><title>orange-knife</title><g id="Layer_2" data-name="Layer 2"><g id="blue"><path class="cls-1" d="M325.52,5.23c9.71-3,20.25-3.36,32.2-5.23-8.43,40.46-28,67.68-65.05,79.79q-23.52,7.69-47.12,15.09c-23.75,7.47-47.56,14.81-71.34,22.22l-7.12,2.22h0l-.1,0c-3.24,1-6.72,1.25-9.92,1.82-1.81-4.61-3.53-8.57-5.26-11.94l.1,0c-5.54-10.85-11.12-15.59-19.52-15.85l0,0c-3.9-.14-8.42.69-13.83,2.34h0l-1,.3-.52.17-.33.11c-.64.21-1.29.42-2,.65-4.25,1.47-8,4.28-12.18,6.09-9.81,4.27-19.4,10-29.43,13.14a54.33,54.33,0,0,1-7,1.76c-9.95,1.77-20,2.92-29.53,5.89-10.17,3.17-19.8,8.42-28.22,18.7l0-.06-.08.1c-2.64-8.42-4-14.13-6.13-19.38l.1-.07L2,122.43c-4.32-10.28-1.63-15.6,9.42-19C116.15,70.85,220.75,37.77,325.52,5.23Z"/><path class="cls-2" d="M8.38,142.55c16.37-20,37.28-21,57.85-24.62,12.61-2.24,24.31-9.63,36.36-14.87,4.16-1.81,7.93-4.62,12.18-6.09,23.57-8.14,31.48-3.66,42.4,24.17,3.2-.57,6.68-.81,9.92-1.82C209,106.24,251,93.43,292.67,79.79c37-12.11,56.62-39.33,65.05-79.79-12,1.87-22.49,2.21-32.2,5.23C220.75,37.77,116.15,70.85,11.38,103.4c-11,3.43-13.74,8.75-9.42,19C4.25,127.89,5.61,133.74,8.38,142.55Z"/><path class="cls-1" d="M276.64,69.93c33.1-10.83,52.27-33.76,62-67.42,5.95-.84,12.24-1.42,19-2.48-8.44,40.46-28,67.68-65.05,79.79C250.86,93.47,208.88,106.28,167,119.35c-3.24,1-6.72,1.25-9.92,1.82-1.81-4.61-3.53-8.57-5.26-11.94C193.45,96.23,235.18,83.5,276.64,69.93Z"/><path class="cls-1" d="M2.15,123.21c14.51-11,31.4-12.17,48.05-15.14,12.61-2.24,24.32-9.63,36.36-14.87,4.16-1.81,7.93-4.61,12.19-6.08,17.07-5.9,25.93-5.17,33.67,6.27-4.81-.17-10.55,1.13-17.75,3.61-4.25,1.47-8,4.28-12.18,6.09-12,5.24-23.75,12.63-36.36,14.87-20.57,3.66-41.49,4.64-57.85,24.63C5.64,134.17,4.26,128.46,2.15,123.21Z"/></g></g></svg>