<svg xmlns="http://www.w3.org/2000/svg" viewBox="0 0 350.15 69.75"><defs><style>.cls-1{fill:#e2336f;}.cls-2{fill:#ff4584;}</style></defs><title>pink-knife</title><g id="Layer_2" data-name="Layer 2"><g id="blue"><path class="cls-1" d="M122.39,64.38c23.43,1.69,46.86,3.25,70.3,4.88l6.29.43h.1c3.16.22,6.38-.31,9.4-.49.66-4.58,1.37-8.54,2.21-12h-.09c2.7-11,6.75-16.55,14.32-18.6v0a37.17,37.17,0,0,1,11.49-.94l.71,0,.72,0,1.7.12h.15l2,.19c4.18.42,8.21,2.15,12.39,2.9,9.83,1.77,19.76,4.88,29.56,5.6a51.2,51.2,0,0,0,6.78.1c9.71-.55,19.36-1.73,29-1a52.7,52.7,0,0,1,28.82,10.86v-.06l.09.07c.59-8.22.61-13.7,1.4-18.93l-.1,0c0-.24.07-.48.11-.72,1.7-10.26-1.88-14.52-12.67-15.26C234.84,14.66,132.63,7.13,30.39.13,20.92-.52,11.26,1.44,0,2.31c16.38,35,40.07,55.48,76.32,58.51Q99.35,62.74,122.39,64.38Z"/><path class="cls-2" d="M348.24,56.61c-19.18-14.63-38.4-11-57.89-9.91-11.94.68-24.17-3.52-36.24-5.69-4.18-.74-8.21-2.48-12.39-2.9-23.18-2.32-29.41,3.45-33.33,31.1-3,.17-6.25.7-9.41.48-40.9-2.86-81.81-5.45-122.66-8.87C40.07,57.79,16.38,37.27,0,2.31,11.26,1.44,20.92-.52,30.39.13c102.24,7,204.45,14.53,306.69,21.54,10.79.74,14.37,5,12.67,15.26C348.84,42.39,348.86,48,348.24,56.61Z"/><path class="cls-1" d="M88.77,48.41C56.34,45.69,34,29,17.89.48,12.3,1,6.46,1.82.1,2.32c16.38,35,40.07,55.47,76.32,58.51,40.85,3.41,81.76,6,122.66,8.87,3.16.22,6.38-.31,9.4-.49.66-4.58,1.37-8.54,2.21-12C170,54.39,129.37,51.8,88.77,48.41Z"/><path class="cls-1" d="M349.74,37.69c-15.56-6.84-31.16-4.3-46.94-3.4-11.94.67-24.18-3.52-36.25-5.69-4.17-.75-8.2-2.49-12.39-2.9-16.79-1.69-24.68.89-29.25,13,4.33-1.2,9.82-1.25,16.91-.54,4.18.41,8.21,2.15,12.38,2.9,12.08,2.17,24.31,6.36,36.25,5.69,19.49-1.11,38.71-4.73,57.89,9.91C348.93,48.41,349,42.92,349.74,37.69Z"/></g></g></svg>