<svg xmlns="http://www.w3.org/2000/svg" xmlns:xlink="http://www.w3.org/1999/xlink" viewBox="0 0 318.06 220.67"><defs><style>.cls-1{fill:#9b4ba0;}.cls-2{clip-path:url(#clip-path);}.cls-3{fill:#702876;}</style><clipPath id="clip-path"><path class="cls-1" d="M316.57.63C294.88,11.88,266.81,24.85,246,37.52,170.44,83.45,95.43,130.26,20.22,176.74c-26.1,16.13-26.09,16.13-4.82,43.93,10-23.27,31.68-28.72,51.66-37.58,10.12-4.49,18.53-13.32,27-21,11.82-10.73,23.68-19.95,41.26-16.88,3.8.67,8.71-1.37,12.27-3.54,38.57-23.58,77.28-47,115.32-71.38,23.64-15.17,39.45-37.37,51.56-62.12C315.25,5.83,317.07,2.62,316.57.63Z"/></clipPath></defs><title>purple-knife</title><g id="Layer_2" data-name="Layer 2"><g id="blue"><path class="cls-1" d="M316.57.63C294.88,11.88,266.81,24.85,246,37.52,170.44,83.45,95.43,130.26,20.22,176.74c-26.1,16.13-26.09,16.13-4.82,43.93,10-23.27,31.68-28.72,51.66-37.58,10.12-4.49,18.53-13.32,27-21,11.82-10.73,23.68-19.95,41.26-16.88,3.8.67,8.71-1.37,12.27-3.54,38.57-23.58,77.28-47,115.32-71.38,23.64-15.17,39.45-37.37,51.56-62.12C315.25,5.83,317.07,2.62,316.57.63Z"/><g class="cls-2"><path class="cls-3" d="M7.89,210.72c11-17.86,30.31-23.07,48.27-31,10.12-4.49,18.52-13.32,27-21C95,148,106.81,138.74,124.39,141.81c3.8.67,8.71-1.37,12.27-3.54,38.57-23.58,77.28-47,115.32-71.38a119.46,119.46,0,0,0,15.76-12.11,132.18,132.18,0,0,0,13.44-14.25,161,161,0,0,0,11.4-16q2.63-4.18,5-8.5,1.22-2.17,2.37-4.36l1.16-2.21a6,6,0,0,1,1.14-1.95,8,8,0,0,1,1.07-.76A71.56,71.56,0,0,1,315.17.43a4,4,0,0,1,2.11-.4,20.66,20.66,0,0,1,.59,2A4.08,4.08,0,0,1,318,4a4.24,4.24,0,0,1-.7,1.37,11.41,11.41,0,0,1-1.59,1.94c-.32.29-.67.48-1,.74a2.22,2.22,0,0,0-.64.93c-.73,1.49-1.48,3-2.24,4.43q-2.26,4.38-4.74,8.65a175.06,175.06,0,0,1-10.7,16.38,141.09,141.09,0,0,1-12.59,14.81,122.2,122.2,0,0,1-14.85,12.89q-3,2.17-6,4.16c-38,24.41-76.75,47.8-115.33,71.38-3.55,2.17-8.46,4.21-12.26,3.54-17.58-3.07-29.44,6.15-41.26,16.88-8.45,7.67-16.86,16.5-27,21-20,8.86-41.64,14.31-51.66,37.58C12.49,216.87,10,213.6,7.89,210.72Z"/></g></g></g></svg>