<svg xmlns="http://www.w3.org/2000/svg" xmlns:xlink="http://www.w3.org/1999/xlink" viewBox="0 0 179.39 240.05"><defs><style>.cls-1{fill:#ff151f;}.cls-2{clip-path:url(#clip-path);}.cls-3{fill:#c5191e;}</style><clipPath id="clip-path"><path class="cls-1" d="M162.75,229.9c-21.77-21.5-44.24-42.46-64.26-65.52C82.57,146,71,124.87,66.75,99.68c-4.38-25.8-20-45.55-41-61.27A126.77,126.77,0,0,1,2.93,16.3C-2.73,9.24.73,3.57,9.39,1.31c15.05-3.92,29.82,1,38.31,13.85C95.36,87.08,146.75,156.82,178.45,239.9,172.62,236.27,166.84,233.94,162.75,229.9ZM8.87,17.06c1.34,1.7,6,.8,9.13,1.06.19-3.47,1.55-7.53.17-10.18-1-1.83-5.67-1.7-10.89-3C7.83,10.49,7.08,14.78,8.87,17.06Z"/></clipPath></defs><title>red-knife</title><g id="Layer_2" data-name="Layer 2"><g id="blue"><path class="cls-1" d="M162.75,229.9c-21.77-21.5-44.24-42.46-64.26-65.52C82.57,146,71,124.87,66.75,99.68c-4.38-25.8-20-45.55-41-61.27A126.77,126.77,0,0,1,2.93,16.3C-2.73,9.24.73,3.57,9.39,1.31c15.05-3.92,29.82,1,38.31,13.85C95.36,87.08,146.75,156.82,178.45,239.9,172.62,236.27,166.84,233.94,162.75,229.9ZM8.87,17.06c1.34,1.7,6,.8,9.13,1.06.19-3.47,1.55-7.53.17-10.18-1-1.83-5.67-1.7-10.89-3C7.83,10.49,7.08,14.78,8.87,17.06Z"/><g class="cls-2"><path class="cls-3" d="M7.39,5.86a13.3,13.3,0,0,0,.5,2.25c1.3,3.5,4.21,6.13,6.61,8.88,1.74,2,3.43,4,5.34,5.87a122.44,122.44,0,0,0,12.75,11c21,15.73,36.67,35.48,41,61.27,4.28,25.19,15.82,46.37,31.74,64.7,20,23.07,42.49,44,64.27,65.53a23.78,23.78,0,0,0,2.84,2.37c.91.66,2,1,2.65,1.93a26.9,26.9,0,0,1,4.13,8.76,1.88,1.88,0,0,1,0,1.28c-.57,1.2-3.18-1-3.86-1.39-1.55-.88-3.12-1.73-4.68-2.6a38,38,0,0,1-8.16-5.7c-21.77-21.5-44.24-42.46-64.26-65.52C82.4,146.14,70.85,125,66.58,99.78c-4.38-25.8-20-45.55-41-61.27A126.77,126.77,0,0,1,2.76,16.4c-1.62-2-3-4.6-2.72-7.29A6.91,6.91,0,0,1,1.85,5.34,10.3,10.3,0,0,1,3.46,3.93a6.25,6.25,0,0,0,.83-.63c.28-.28.49-.61.79-.86a3.37,3.37,0,0,1,.66-.39,8.59,8.59,0,0,1,1.68-.72A3.71,3.71,0,0,1,8,1.22c.15,0,.33,0,.37.14s-.1.13-.13.2a7.23,7.23,0,0,0-.92,2.69A5.47,5.47,0,0,0,7.39,5.86Z"/></g></g></g></svg>