<svg xmlns="http://www.w3.org/2000/svg" xmlns:xlink="http://www.w3.org/1999/xlink" viewBox="0 0 143.17 291.23"><defs><style>.cls-1{fill:#b2b4b7;}.cls-2{clip-path:url(#clip-path);}.cls-3{fill:#808083;}</style><clipPath id="clip-path"><path class="cls-1" d="M0,291.23C16.63,195.52,57.14,110,93.2,22.94,99.62,7.43,114.42-1,131.37.09c9.76.61,14.65,6,10.06,14.72a137.54,137.54,0,0,1-19.79,28.46C102.39,64.52,89.75,89,90.45,117.54c.68,27.9-7.27,53-20.5,76-16.65,28.91-36.35,56.08-55.2,83.68C11.21,282.41,5.5,286.11,0,291.23ZM134.4,3.57C129.07,6,124,6.87,123.34,9c-.92,3.13,1.39,7.2,2.31,10.88,3.34-.94,8.5-.95,9.57-3.05C136.67,14,135,9.61,134.4,3.57Z"/></clipPath></defs><title>silver-knife</title><g id="Layer_2" data-name="Layer 2"><g id="blue"><path class="cls-1" d="M0,291.23C16.63,195.52,57.14,110,93.2,22.94,99.62,7.43,114.42-1,131.37.09c9.76.61,14.65,6,10.06,14.72a137.54,137.54,0,0,1-19.79,28.46C102.39,64.52,89.75,89,90.45,117.54c.68,27.9-7.27,53-20.5,76-16.65,28.91-36.35,56.08-55.2,83.68C11.21,282.41,5.5,286.11,0,291.23ZM134.4,3.57C129.07,6,124,6.87,123.34,9c-.92,3.13,1.39,7.2,2.31,10.88,3.34-.94,8.5-.95,9.57-3.05C136.67,14,135,9.61,134.4,3.57Z"/><g class="cls-2"><path class="cls-3" d="M134.61,5.48c.68,5.07,1.88,8.86.6,11.38-.82,1.58-4,2-6.9,2.48a136.21,136.21,0,0,1-15.22,20.41C93.84,61,81.2,85.45,81.9,114c.68,27.9-7.27,53-20.5,76C44.75,218.93,25,246.1,6.2,273.7a29.39,29.39,0,0,1-3.74,4.35C1.6,282.42.77,286.81,0,291.22c5.49-5.12,11.2-8.82,14.73-14,18.85-27.61,38.56-54.78,55.2-83.69,13.24-23,21.19-48.1,20.5-76-.7-28.56,11.95-53,31.2-74.26a138.85,138.85,0,0,0,19.79-28.46c4.38-8.37.1-13.61-8.78-14.6A7.08,7.08,0,0,1,134.61,5.48Z"/></g></g></g></svg>