<svg xmlns="http://www.w3.org/2000/svg" width="100%" height="100%" viewBox="0 0 16 14"><title>Twitter 2.009</title><path fill="#fff" fill-rule="evenodd" d="M16 1.578a6.412 6.412 0 0 1-1.885.53A3.359 3.359 0 0 0 15.56.247a6.465 6.465 0 0 1-2.086.815A3.237 3.237 0 0 0 11.077 0C9.265 0 7.796 1.507 7.796 3.366c0 .264.028.52.084.766-2.728-.14-5.146-1.479-6.766-3.518A3.427 3.427 0 0 0 .67 2.308c0 1.168.579 2.198 1.46 2.802a3.223 3.223 0 0 1-1.488-.42v.041c0 1.632 1.132 2.993 2.635 3.3a3.189 3.189 0 0 1-1.483.059c.418 1.337 1.63 2.31 3.066 2.337A6.482 6.482 0 0 1 0 11.822a9.14 9.14 0 0 0 5.032 1.511c6.038 0 9.34-5.128 9.34-9.576 0-.147-.003-.293-.009-.436A6.737 6.737 0 0 0 16 1.578" class="src-components-common-graphics-social-___social__social-icon___16fnX"></path></svg>