<svg xmlns="http://www.w3.org/2000/svg" xmlns:xlink="http://www.w3.org/1999/xlink" viewBox="0 0 350.84 132.71"><defs><style>.cls-1{fill:#ffd900;}.cls-2{clip-path:url(#clip-path);}.cls-3{fill:#c4a01b;}</style><clipPath id="clip-path"><path class="cls-1" d="M.58.13C24,5.27,54.16,10.57,77.14,17.28c83.33,24.33,166.38,49.63,249.53,74.56,28.85,8.65,28.85,8.65,15.75,40.43-15.43-19.51-37.35-19.17-58.56-22.49-10.74-1.68-20.95-7.91-30.92-13-13.95-7.16-27.54-12.89-43.43-5.5-3.43,1.6-8.61.92-12.53-.24C154.4,78.46,111.74,66.14,69.45,52.67,43.17,44.3,22.52,27.28,4.74,6.89,4.74,6.89,1.32,2.4.58.13Z"/></clipPath></defs><title>yellow-knife</title><g id="Layer_2" data-name="Layer 2"><g id="blue"><path class="cls-1" d="M.58.13C24,5.27,54.16,10.57,77.14,17.28c83.33,24.33,166.38,49.63,249.53,74.56,28.85,8.65,28.85,8.65,15.75,40.43-15.43-19.51-37.35-19.17-58.56-22.49-10.74-1.68-20.95-7.91-30.92-13-13.95-7.16-27.54-12.89-43.43-5.5-3.43,1.6-8.61.92-12.53-.24C154.4,78.46,111.74,66.14,69.45,52.67,43.17,44.3,22.52,27.28,4.74,6.89,4.74,6.89,1.32,2.4.58.13Z"/><g class="cls-2"><path class="cls-3" d="M16.16,3.52c17.22,19.14,37.15,35,62.2,43,42.29,13.47,85,25.8,127.53,38.33,3.93,1.16,9.1,1.84,12.54.24,15.89-7.39,29.48-1.66,43.42,5.51,10,5.12,20.19,11.36,30.93,13,12.43,1.94,25.29,2.55,37.18,7A51.24,51.24,0,0,1,340.57,116a46.61,46.61,0,0,1,4.85,3.77c1.36,1.21,2.6,2.35,2.4,4.34a7.86,7.86,0,0,1-1.46,3.49,30.32,30.32,0,0,0-2.08,3.21,7.1,7.1,0,0,1-.68,1.24,1.48,1.48,0,0,1-1.22.62c-.95-.07-1.48-1.38-2.07-2a11.17,11.17,0,0,0-2.55-2.2c-.69-.39-1.44-.66-2.12-1.06a14.89,14.89,0,0,1-1.68-1.28,30.39,30.39,0,0,0-5-3.57,46.3,46.3,0,0,0-4.25-1.91q-3.6-1.51-7.07-3.34a14.1,14.1,0,0,0-3.19-1.57c-1.17-.24-2.42-.21-3.61-.45-1.82-.36-3.57-1-5.36-1.49A47,47,0,0,0,291,112.37a17.3,17.3,0,0,1-3.74-.09,14.82,14.82,0,0,1-2.83-.91c-2.87-1.15-5.68-2.44-8.52-3.65-2.49-1.06-5.14-1.83-7.64-3-5.42-2.49-10.62-5.44-15.93-8.16s-10.65-5.68-16.63-6.43a15.12,15.12,0,0,0-2.93-.16,31.51,31.51,0,0,0-3.33.51c-4.11.65-8.31,0-12.45.45a50.93,50.93,0,0,0-6.11,1.14c-3,.69-6.18,1.61-9.21.84a48.67,48.67,0,0,1-5.38-2.09c-1.77-.68-3.67-1.11-5.49-1.65q-20.37-6-40.74-12T109.43,65.08Q89.12,58.92,68.88,52.5C42.61,44.13,22,27.11,4.18,6.72A51.43,51.43,0,0,1,0,0L10.6,1.21l5.45,2.18.11.13"/></g></g></g></svg>